<svg width="24" height="24" viewBox="0 0 24 24" fill="none" xmlns="http://www.w3.org/2000/svg">
<path d="M9.89699 7.5195C9.93013 7.50491 9.96639 7.49889 10.0025 7.50198C10.0385 7.50507 10.0733 7.51718 10.1034 7.5372C10.1336 7.55721 10.1582 7.58448 10.1751 7.61651C10.192 7.64854 10.2005 7.6843 10.2 7.7205V9.45C10.2 9.64891 10.279 9.83968 10.4197 9.98033C10.5603 10.121 10.7511 10.2 10.95 10.2C11.9505 10.2 13.9695 10.2075 15.9 11.433C17.376 12.369 18.885 14.073 19.7925 17.247C18.2625 15.7725 16.515 14.973 14.985 14.5485C14.0446 14.2888 13.0781 14.1348 12.1035 14.0895C11.7046 14.072 11.305 14.076 10.9065 14.1015H10.887L10.8795 14.103H10.878L10.95 14.85L10.875 14.103C10.6899 14.1216 10.5183 14.2084 10.3935 14.3464C10.2688 14.4845 10.1998 14.6639 10.2 14.85V16.5795C10.2 16.7415 10.035 16.8435 9.89699 16.7805L3.92099 12.381C3.90071 12.366 3.87968 12.3519 3.85799 12.339C3.82538 12.3194 3.79839 12.2917 3.77965 12.2586C3.76091 12.2255 3.75107 12.1881 3.75107 12.15C3.75107 12.1119 3.76091 12.0745 3.77965 12.0414C3.79839 12.0083 3.82538 11.9806 3.85799 11.961C3.87969 11.9481 3.90071 11.9341 3.92099 11.919L9.89699 7.5195ZM11.7 15.579C11.802 15.579 11.9145 15.5835 12.0345 15.588C12.6855 15.618 13.5855 15.717 14.5845 15.9945C16.5735 16.5465 18.9285 17.7975 20.4945 20.6145C20.5792 20.7666 20.7141 20.8844 20.8762 20.9479C21.0382 21.0114 21.2173 21.0165 21.3828 20.9625C21.5482 20.9084 21.6897 20.7984 21.7829 20.6515C21.8762 20.5045 21.9155 20.3297 21.894 20.157C21.198 14.592 19.065 11.664 16.704 10.167C14.8365 8.982 12.9135 8.754 11.7 8.7105V7.7205C11.7001 7.4116 11.6169 7.1084 11.459 6.84287C11.3012 6.57735 11.0746 6.35935 10.8032 6.21189C10.5318 6.06442 10.2256 5.99296 9.9169 6.00504C9.60824 6.01711 9.30857 6.11228 9.04949 6.2805L3.05849 10.6905C2.81081 10.8451 2.60655 11.0602 2.46494 11.3155C2.32333 11.5709 2.24902 11.858 2.24902 12.15C2.24902 12.442 2.32333 12.7291 2.46494 12.9845C2.60655 13.2398 2.81081 13.4549 3.05849 13.6095L9.04949 18.0195C9.30857 18.1877 9.60824 18.2829 9.9169 18.295C10.2256 18.307 10.5318 18.2356 10.8032 18.0881C11.0746 17.9406 11.3012 17.7227 11.459 17.4571C11.6169 17.1916 11.7001 16.8884 11.7 16.5795V15.579V15.579Z" fill="#21272A"/>
</svg>
