<svg width="30" height="30" viewBox="0 0 30 30" fill="none" xmlns="http://www.w3.org/2000/svg">
<path d="M15.1995 14.525C15.162 14.525 15.137 14.525 15.0995 14.525C15.037 14.5125 14.9495 14.5125 14.8745 14.525C11.2495 14.4125 8.51202 11.5625 8.51202 8.05C8.51202 4.475 11.4245 1.5625 14.9995 1.5625C18.5745 1.5625 21.487 4.475 21.487 8.05C21.4745 11.5625 18.7245 14.4125 15.237 14.525C15.2245 14.525 15.212 14.525 15.1995 14.525ZM14.9995 3.4375C12.462 3.4375 10.387 5.5125 10.387 8.05C10.387 10.55 12.337 12.5625 14.8245 12.65C14.887 12.6375 15.062 12.6375 15.2245 12.65C17.6745 12.5375 19.5995 10.525 19.612 8.05C19.612 5.5125 17.537 3.4375 14.9995 3.4375Z" fill="#21272A"/>
<path d="M15.212 28.1875C12.762 28.1875 10.2995 27.5625 8.43701 26.3125C6.69951 25.1625 5.74951 23.5875 5.74951 21.875C5.74951 20.1625 6.69951 18.575 8.43701 17.4125C12.187 14.925 18.262 14.925 21.987 17.4125C23.712 18.5625 24.6745 20.1375 24.6745 21.85C24.6745 23.5625 23.7245 25.15 21.987 26.3125C20.112 27.5625 17.662 28.1875 15.212 28.1875ZM9.47451 18.9875C8.27451 19.7875 7.62451 20.8125 7.62451 21.8875C7.62451 22.95 8.28701 23.975 9.47451 24.7625C12.587 26.85 17.837 26.85 20.9495 24.7625C22.1495 23.9625 22.7995 22.9375 22.7995 21.8625C22.7995 20.8 22.137 19.775 20.9495 18.9875C17.837 16.9125 12.587 16.9125 9.47451 18.9875Z" fill="#21272A"/>
</svg>
