<svg width="24" height="24" viewBox="0 0 24 24" fill="none" xmlns="http://www.w3.org/2000/svg">
<path d="M14.04 22.75H9.24996C7.62996 22.75 6.15996 22.12 5.09996 20.96C4.03996 19.81 3.52996 18.29 3.66996 16.68C4.00996 12.58 7.62996 9.25 11.75 9.25C15.54 9.25 19.12 12.29 19.75 16.02C20.05 17.8 19.61 19.48 18.53 20.76C17.43 22.04 15.84 22.75 14.04 22.75ZM11.74 10.75C8.38996 10.75 5.43996 13.47 5.15996 16.81C5.05996 18 5.42996 19.11 6.19996 19.95C6.96996 20.79 8.04996 21.25 9.23996 21.25H14.03C15.38 21.25 16.57 20.73 17.36 19.8C18.15 18.87 18.47 17.61 18.25 16.27C17.75 13.23 14.83 10.75 11.74 10.75Z" fill="#292D32"/>
<path d="M10.47 8.25C8.67997 8.25 7.21997 6.79 7.21997 5C7.21997 3.21 8.67997 1.75 10.47 1.75C12.26 1.75 13.72 3.21 13.72 5C13.72 6.79 12.27 8.25 10.47 8.25ZM10.47 3.25C9.50997 3.25 8.71997 4.04 8.71997 5C8.71997 5.96 9.50997 6.75 10.47 6.75C11.43 6.75 12.22 5.96 12.22 5C12.22 4.04 11.44 3.25 10.47 3.25Z" fill="#292D32"/>
<path d="M17.3 9.44995C15.78 9.44995 14.55 8.21995 14.55 6.69995C14.55 5.17995 15.78 3.94995 17.3 3.94995C18.82 3.94995 20.05 5.17995 20.05 6.69995C20.05 8.21995 18.82 9.44995 17.3 9.44995ZM17.3 5.44995C16.61 5.44995 16.05 6.00995 16.05 6.69995C16.05 7.38995 16.61 7.94995 17.3 7.94995C17.99 7.94995 18.55 7.38995 18.55 6.69995C18.55 6.00995 17.99 5.44995 17.3 5.44995Z" fill="#292D32"/>
<path d="M21 13.45C19.76 13.45 18.75 12.44 18.75 11.2C18.75 9.95995 19.76 8.94995 21 8.94995C22.24 8.94995 23.25 9.95995 23.25 11.2C23.25 12.44 22.24 13.45 21 13.45ZM21 10.45C20.59 10.45 20.25 10.79 20.25 11.2C20.25 11.61 20.59 11.95 21 11.95C21.41 11.95 21.75 11.61 21.75 11.2C21.75 10.79 21.41 10.45 21 10.45Z" fill="#292D32"/>
<path d="M3.96997 11.45C2.44997 11.45 1.21997 10.22 1.21997 8.69995C1.21997 7.17995 2.44997 5.94995 3.96997 5.94995C5.48997 5.94995 6.71997 7.17995 6.71997 8.69995C6.71997 10.22 5.48997 11.45 3.96997 11.45ZM3.96997 7.44995C3.27997 7.44995 2.71997 8.00995 2.71997 8.69995C2.71997 9.38995 3.27997 9.94995 3.96997 9.94995C4.65997 9.94995 5.21997 9.38995 5.21997 8.69995C5.21997 8.00995 4.65997 7.44995 3.96997 7.44995Z" fill="#292D32"/>
</svg>
