<svg width="201" height="170" viewBox="0 0 201 170" fill="none" xmlns="http://www.w3.org/2000/svg">
<mask id="mask0_639_2628" style="mask-type:alpha" maskUnits="userSpaceOnUse" x="0" y="0" width="201" height="170">
<mask id="path-1-inside-1_639_2628" fill="white">
<path d="M98.6008 75.5424C99.547 73.2768 102.675 72.8431 104.112 74.8334C109.616 82.4527 115.706 90.1182 123.616 96.8539C132.998 104.842 144.836 111.476 161.22 115.738C161.994 115.939 162.245 116.92 161.656 117.46L107.928 166.67C105.939 168.492 103.408 169.351 100.909 169.273C100.861 169.272 100.813 169.274 100.765 169.278C98.0524 169.547 95.2411 168.707 93.0724 166.721L55.1772 132.012C54.7413 131.613 54.7514 130.919 55.1903 130.523C79.9061 108.225 92.2317 90.7926 98.6008 75.5424ZM11.6402 20.8759C11.8362 20.6025 12.1637 20.4478 12.4996 20.465C37.2483 21.7318 53.8512 26.8286 65.9787 33.8236C77.1244 40.2524 84.7878 48.4476 91.6516 57.4496C92.1821 58.1454 92.3777 59.0419 92.174 59.8929C91.8635 61.1902 91.5143 62.5032 91.1174 63.8373C86.6927 78.7074 76.1607 96.9752 46.8917 123.19C46.5095 123.533 45.9223 123.536 45.544 123.189L19.8967 99.6986C-2.64202 79.0553 -5.73098 45.111 11.6402 20.8759ZM121.488 12.4408C139.742 -4.27718 168.092 -3.03204 184.81 15.2211C207.1 39.5586 205.441 77.3581 181.104 99.6488L171.525 108.421C171.291 108.635 170.967 108.725 170.656 108.663C151.548 104.877 138.952 98.0909 129.451 90.0013C119.073 81.1644 112.224 70.6971 104.441 59.7054C103.965 59.0339 103.786 58.1976 103.934 57.3881C105.023 51.4011 105.486 45.8052 105.965 40.5267C106.45 35.1769 106.954 30.1301 108.044 25.0027C108.087 24.8004 108.192 24.6168 108.345 24.4771L121.488 12.4408ZM65.9592 56.1185C61.2922 51.4517 53.7258 51.4517 49.0588 56.1185L45.7356 59.4409C45.3451 59.8313 44.712 59.8313 44.3215 59.4408L40.9992 56.1185C36.3322 51.4517 28.7658 51.4517 24.0988 56.1185C19.4322 60.7856 19.432 68.352 24.0988 73.0189L44.9096 93.8297C44.9315 93.8516 44.9671 93.8515 44.989 93.8295V93.8295C45.0108 93.8074 45.0465 93.8075 45.0685 93.8294V93.8294C45.0905 93.8515 45.1265 93.8516 45.1485 93.8296L65.9592 73.0189C70.626 68.3519 70.6261 60.7855 65.9592 56.1185ZM179.931 31.8822C175.264 27.2153 167.697 27.2152 163.03 31.8822L159.707 35.2046C159.317 35.595 158.684 35.595 158.293 35.2045L154.971 31.8822C150.304 27.2153 142.738 27.2152 138.07 31.8822C133.404 36.5493 133.404 44.1158 138.07 48.7826L158.881 69.5934C158.903 69.6153 158.939 69.6152 158.961 69.5931V69.5931C158.982 69.5711 159.018 69.5711 159.04 69.5931V69.5931C159.062 69.6151 159.098 69.6153 159.12 69.5933L179.931 48.7826C184.598 44.1155 184.598 36.5492 179.931 31.8822ZM21.9416 12.1264C21.0646 12.0434 20.7119 10.9604 21.4016 10.4124C38.35 -3.05283 63.0411 -2.59403 79.5119 12.4916L95.9434 27.5412C96.19 27.767 96.307 28.1013 96.2574 28.432C95.6854 32.2494 95.3358 35.9402 95.0099 39.5336C94.7755 42.1189 91.5363 43.1452 89.7424 41.2689C84.4241 35.7056 78.2145 30.4914 70.4758 26.0277C58.4583 19.0962 43.0266 14.1221 21.9416 12.1264Z"/>
</mask>
<path d="M98.6008 75.5424C99.547 73.2768 102.675 72.8431 104.112 74.8334C109.616 82.4527 115.706 90.1182 123.616 96.8539C132.998 104.842 144.836 111.476 161.22 115.738C161.994 115.939 162.245 116.92 161.656 117.46L107.928 166.67C105.939 168.492 103.408 169.351 100.909 169.273C100.861 169.272 100.813 169.274 100.765 169.278C98.0524 169.547 95.2411 168.707 93.0724 166.721L55.1772 132.012C54.7413 131.613 54.7514 130.919 55.1903 130.523C79.9061 108.225 92.2317 90.7926 98.6008 75.5424ZM11.6402 20.8759C11.8362 20.6025 12.1637 20.4478 12.4996 20.465C37.2483 21.7318 53.8512 26.8286 65.9787 33.8236C77.1244 40.2524 84.7878 48.4476 91.6516 57.4496C92.1821 58.1454 92.3777 59.0419 92.174 59.8929C91.8635 61.1902 91.5143 62.5032 91.1174 63.8373C86.6927 78.7074 76.1607 96.9752 46.8917 123.19C46.5095 123.533 45.9223 123.536 45.544 123.189L19.8967 99.6986C-2.64202 79.0553 -5.73098 45.111 11.6402 20.8759ZM121.488 12.4408C139.742 -4.27718 168.092 -3.03204 184.81 15.2211C207.1 39.5586 205.441 77.3581 181.104 99.6488L171.525 108.421C171.291 108.635 170.967 108.725 170.656 108.663C151.548 104.877 138.952 98.0909 129.451 90.0013C119.073 81.1644 112.224 70.6971 104.441 59.7054C103.965 59.0339 103.786 58.1976 103.934 57.3881C105.023 51.4011 105.486 45.8052 105.965 40.5267C106.45 35.1769 106.954 30.1301 108.044 25.0027C108.087 24.8004 108.192 24.6168 108.345 24.4771L121.488 12.4408ZM65.9592 56.1185C61.2922 51.4517 53.7258 51.4517 49.0588 56.1185L45.7356 59.4409C45.3451 59.8313 44.712 59.8313 44.3215 59.4408L40.9992 56.1185C36.3322 51.4517 28.7658 51.4517 24.0988 56.1185C19.4322 60.7856 19.432 68.352 24.0988 73.0189L44.9096 93.8297C44.9315 93.8516 44.9671 93.8515 44.989 93.8295V93.8295C45.0108 93.8074 45.0465 93.8075 45.0685 93.8294V93.8294C45.0905 93.8515 45.1265 93.8516 45.1485 93.8296L65.9592 73.0189C70.626 68.3519 70.6261 60.7855 65.9592 56.1185ZM179.931 31.8822C175.264 27.2153 167.697 27.2152 163.03 31.8822L159.707 35.2046C159.317 35.595 158.684 35.595 158.293 35.2045L154.971 31.8822C150.304 27.2153 142.738 27.2152 138.07 31.8822C133.404 36.5493 133.404 44.1158 138.07 48.7826L158.881 69.5934C158.903 69.6153 158.939 69.6152 158.961 69.5931V69.5931C158.982 69.5711 159.018 69.5711 159.04 69.5931V69.5931C159.062 69.6151 159.098 69.6153 159.12 69.5933L179.931 48.7826C184.598 44.1155 184.598 36.5492 179.931 31.8822ZM21.9416 12.1264C21.0646 12.0434 20.7119 10.9604 21.4016 10.4124C38.35 -3.05283 63.0411 -2.59403 79.5119 12.4916L95.9434 27.5412C96.19 27.767 96.307 28.1013 96.2574 28.432C95.6854 32.2494 95.3358 35.9402 95.0099 39.5336C94.7755 42.1189 91.5363 43.1452 89.7424 41.2689C84.4241 35.7056 78.2145 30.4914 70.4758 26.0277C58.4583 19.0962 43.0266 14.1221 21.9416 12.1264Z" fill="url(#paint0_linear_639_2628)"/>
<path d="M98.6008 75.5424L97.678 75.157L97.678 75.157L98.6008 75.5424ZM104.112 74.8334L104.923 74.2478L104.923 74.2478L104.112 74.8334ZM123.616 96.8539L122.968 97.6153L122.968 97.6153L123.616 96.8539ZM107.928 166.67L108.603 167.408L108.603 167.408L107.928 166.67ZM93.0724 166.721L92.397 167.458L92.3971 167.459L93.0724 166.721ZM65.9787 33.8236L66.4783 32.9574L66.4783 32.9574L65.9787 33.8236ZM91.6516 57.4496L92.4468 56.8433L92.4468 56.8433L91.6516 57.4496ZM92.174 59.8929L93.1465 60.1258L93.1465 60.1258L92.174 59.8929ZM91.1174 63.8373L92.0758 64.1225L92.0758 64.1225L91.1174 63.8373ZM19.8967 99.6986L19.2212 100.436L19.2212 100.436L19.8967 99.6986ZM121.488 12.4408L122.164 13.1783L122.164 13.1782L121.488 12.4408ZM184.81 15.2211L185.547 14.5457L185.547 14.5457L184.81 15.2211ZM181.104 99.6488L181.779 100.386L181.779 100.386L181.104 99.6488ZM129.451 90.0013L128.803 90.7627L128.803 90.7627L129.451 90.0013ZM104.441 59.7054L103.624 60.2833L103.625 60.2833L104.441 59.7054ZM103.934 57.3881L102.95 57.209L102.95 57.209L103.934 57.3881ZM105.965 40.5267L104.969 40.4364L104.969 40.4364L105.965 40.5267ZM65.9592 56.1185L66.6663 55.4114L66.6663 55.4114L65.9592 56.1185ZM49.0588 56.1185L49.7658 56.8257L49.7659 56.8257L49.0588 56.1185ZM40.9992 56.1185L41.7063 55.4114L41.7063 55.4114L40.9992 56.1185ZM24.0988 56.1185L23.3917 55.4114L23.3917 55.4115L24.0988 56.1185ZM24.0988 73.0189L23.3917 73.726L23.3917 73.726L24.0988 73.0189ZM65.9592 73.0189L66.6663 73.726L66.6663 73.726L65.9592 73.0189ZM179.931 31.8822L180.638 31.1751L180.638 31.1751L179.931 31.8822ZM163.03 31.8822L163.737 32.5894L163.738 32.5893L163.03 31.8822ZM154.971 31.8822L155.678 31.1751L155.678 31.1751L154.971 31.8822ZM138.07 31.8822L137.363 31.1751L137.363 31.1751L138.07 31.8822ZM138.07 48.7826L137.363 49.4897L137.363 49.4897L138.07 48.7826ZM179.931 48.7826L180.638 49.4897L180.638 49.4897L179.931 48.7826ZM79.5119 12.4916L80.1873 11.7541L80.1873 11.7541L79.5119 12.4916ZM95.0099 39.5336L94.014 39.4433L94.014 39.4433L95.0099 39.5336ZM89.7424 41.2689L89.0195 41.9599L89.0196 41.96L89.7424 41.2689ZM70.4758 26.0277L70.9754 25.1615L70.9754 25.1615L70.4758 26.0277ZM45.1485 93.8296L44.4414 93.1225L45.1485 93.8296ZM12.4996 20.465L12.4485 21.4636L12.4996 20.465ZM11.6402 20.8759L10.8274 20.2933L11.6402 20.8759ZM161.22 115.738L161.472 114.77L161.22 115.738ZM161.656 117.46L160.98 116.723L161.656 117.46ZM45.7356 59.4409L45.0286 58.7337L45.7356 59.4409ZM95.9434 27.5412L95.2679 28.2786L95.9434 27.5412ZM96.2574 28.432L97.2464 28.5802L96.2574 28.432ZM108.044 25.0027L109.022 25.2106L108.044 25.0027ZM108.345 24.4771L107.67 23.7396L108.345 24.4771ZM171.525 108.421L170.85 107.683L171.525 108.421ZM170.656 108.663L170.85 107.683L170.656 108.663ZM55.1772 132.012L54.5018 132.75L55.1772 132.012ZM55.1903 130.523L54.5204 129.781L55.1903 130.523ZM100.909 169.273L100.878 170.273L100.909 169.273ZM100.765 169.278L100.864 170.273L100.765 169.278ZM159.707 35.2046L160.414 35.9118L159.707 35.2046ZM158.293 35.2045L159 34.4974L158.293 35.2045ZM46.8917 123.19L47.5589 123.935L46.8917 123.19ZM45.544 123.189L44.8685 123.926L45.544 123.189ZM98.6008 75.5424L99.5235 75.9277C100.186 74.3414 102.348 74.0985 103.302 75.4189L104.112 74.8334L104.923 74.2478C103.002 71.5877 98.9079 72.2122 97.678 75.157L98.6008 75.5424ZM104.112 74.8334L103.302 75.4189C108.822 83.0609 114.967 90.8022 122.968 97.6153L123.616 96.8539L124.265 96.0925C116.445 89.4341 110.41 81.8444 104.923 74.2478L104.112 74.8334ZM123.616 96.8539L122.968 97.6153C132.468 105.704 144.443 112.407 160.968 116.705L161.22 115.738L161.472 114.77C145.23 110.545 133.528 103.98 124.265 96.0925L123.616 96.8539ZM161.656 117.46L160.98 116.723L107.252 165.933L107.928 166.67L108.603 167.408L162.331 118.197L161.656 117.46ZM107.928 166.67L107.252 165.933C105.463 167.572 103.189 168.344 100.94 168.274L100.909 169.273L100.878 170.273C103.627 170.358 106.414 169.413 108.603 167.408L107.928 166.67ZM100.765 169.278L100.667 168.283C98.224 168.525 95.6976 167.769 93.7478 165.984L93.0724 166.721L92.3971 167.459C94.7846 169.645 97.8807 170.569 100.864 170.273L100.765 169.278ZM93.0724 166.721L93.7479 165.984L55.8527 131.275L55.1772 132.012L54.5018 132.75L92.397 167.458L93.0724 166.721ZM55.1903 130.523L55.8601 131.266C80.6416 108.908 93.0785 91.3599 99.5235 75.9277L98.6008 75.5424L97.678 75.157C91.385 90.2252 79.1705 107.542 54.5204 129.781L55.1903 130.523ZM12.4996 20.465L12.4485 21.4636C37.0825 22.7246 53.5215 27.7929 65.4791 34.6898L65.9787 33.8236L66.4783 32.9574C54.1808 25.8644 37.4142 20.739 12.5507 19.4663L12.4996 20.465ZM65.9787 33.8236L65.4791 34.6898C76.4668 41.0275 84.0358 49.1106 90.8563 58.0559L91.6516 57.4496L92.4468 56.8433C85.5398 47.7847 77.7821 39.4773 66.4783 32.9574L65.9787 33.8236ZM91.6516 57.4496L90.8563 58.0559C91.208 58.5171 91.3341 59.1063 91.2015 59.6601L92.174 59.8929L93.1465 60.1258C93.4214 58.9775 93.1563 57.7738 92.4468 56.8433L91.6516 57.4496ZM92.174 59.8929L91.2015 59.6601C90.8949 60.9408 90.5504 62.2364 90.1589 63.5521L91.1174 63.8373L92.0758 64.1225C92.4782 62.7701 92.832 61.4395 93.1465 60.1258L92.174 59.8929ZM91.1174 63.8373L90.1589 63.5521C85.8048 78.185 75.4114 96.3038 46.2246 122.445L46.8917 123.19L47.5589 123.935C76.9099 97.6466 87.5806 79.2299 92.0758 64.1225L91.1174 63.8373ZM45.544 123.189L46.2194 122.452L20.5721 98.9612L19.8967 99.6986L19.2212 100.436L44.8685 123.926L45.544 123.189ZM19.8967 99.6986L20.5721 98.9612C-1.58889 78.6638 -4.6269 45.2871 12.453 21.4585L11.6402 20.8759L10.8274 20.2933C-6.83506 44.9348 -3.69514 79.4467 19.2212 100.436L19.8967 99.6986ZM121.488 12.4408L122.164 13.1782C140.01 -3.1667 167.727 -1.94937 184.072 15.8965L184.81 15.2211L185.547 14.5457C168.456 -4.11471 139.473 -5.38765 120.813 11.7034L121.488 12.4408ZM184.81 15.2211L184.072 15.8965C205.99 39.8267 204.358 76.9937 180.428 98.9114L181.104 99.6488L181.779 100.386C206.524 77.7225 208.211 39.2905 185.547 14.5457L184.81 15.2211ZM181.104 99.6488L180.428 98.9113L170.85 107.683L171.525 108.421L172.2 109.158L181.779 100.386L181.104 99.6488ZM170.656 108.663L170.85 107.683C151.898 103.927 139.461 97.2111 130.1 89.24L129.451 90.0013L128.803 90.7627C138.443 98.9706 151.198 105.827 170.461 109.644L170.656 108.663ZM129.451 90.0013L130.1 89.24C119.84 80.5035 113.071 70.1623 105.257 59.1275L104.441 59.7054L103.625 60.2833C111.378 71.232 118.307 81.8253 128.803 90.7627L129.451 90.0013ZM104.441 59.7054L105.257 59.1276C104.94 58.6802 104.817 58.1177 104.918 57.5671L103.934 57.3881L102.95 57.209C102.756 58.2774 102.99 59.3876 103.624 60.2833L104.441 59.7054ZM103.934 57.3881L104.918 57.5671C106.017 51.5273 106.483 45.8835 106.961 40.617L105.965 40.5267L104.969 40.4364C104.489 45.7268 104.03 51.2749 102.95 57.209L103.934 57.3881ZM105.965 40.5267L106.961 40.617C107.446 35.2664 107.946 30.2734 109.022 25.2106L108.044 25.0027L107.066 24.7948C105.962 29.9868 105.454 35.0874 104.969 40.4364L105.965 40.5267ZM108.345 24.4771L109.02 25.2146L122.164 13.1783L121.488 12.4408L120.813 11.7033L107.67 23.7396L108.345 24.4771ZM65.9592 56.1185L66.6663 55.4114C61.6088 50.354 53.4092 50.3541 48.3517 55.4114L49.0588 56.1185L49.7659 56.8257C54.0424 52.5493 60.9756 52.5493 65.2521 56.8256L65.9592 56.1185ZM49.0588 56.1185L48.3518 55.4113L45.0286 58.7337L45.7356 59.4409L46.4426 60.1481L49.7658 56.8257L49.0588 56.1185ZM44.3215 59.4408L45.0286 58.7337L41.7063 55.4114L40.9992 56.1185L40.2921 56.8256L43.6144 60.1479L44.3215 59.4408ZM40.9992 56.1185L41.7063 55.4114C36.6488 50.354 28.4493 50.3541 23.3917 55.4114L24.0988 56.1185L24.8059 56.8257C29.0824 52.5494 36.0157 52.5493 40.2921 56.8256L40.9992 56.1185ZM24.0988 56.1185L23.3917 55.4115C18.3346 60.469 18.3344 68.6686 23.3917 73.726L24.0988 73.0189L24.8059 72.3118C20.5297 68.0355 20.5298 61.1022 24.806 56.8256L24.0988 56.1185ZM24.0988 73.0189L23.3917 73.726L44.2025 94.5368L44.9096 93.8297L45.6167 93.1226L24.8059 72.3118L24.0988 73.0189ZM45.1485 93.8296L45.8556 94.5367L66.6663 73.726L65.9592 73.0189L65.2521 72.3118L44.4414 93.1225L45.1485 93.8296ZM65.9592 73.0189L66.6663 73.726C71.7236 68.6685 71.7238 60.4689 66.6663 55.4114L65.9592 56.1185L65.2521 56.8256C69.5285 61.1021 69.5284 68.0353 65.252 72.3118L65.9592 73.0189ZM179.931 31.8822L180.638 31.1751C175.58 26.1176 167.381 26.1176 162.323 31.1751L163.03 31.8822L163.738 32.5893C168.014 28.3128 174.947 28.3129 179.224 32.5893L179.931 31.8822ZM163.03 31.8822L162.323 31.175L159 34.4974L159.707 35.2046L160.414 35.9118L163.737 32.5894L163.03 31.8822ZM158.293 35.2045L159 34.4974L155.678 31.1751L154.971 31.8822L154.264 32.5893L157.586 35.9116L158.293 35.2045ZM154.971 31.8822L155.678 31.1751C150.62 26.1177 142.421 26.1176 137.363 31.1751L138.07 31.8822L138.778 32.5893C143.054 28.3128 149.987 28.3129 154.264 32.5893L154.971 31.8822ZM138.07 31.8822L137.363 31.1751C132.307 36.2327 132.306 44.4323 137.363 49.4897L138.07 48.7826L138.778 48.0755C134.501 43.7992 134.502 36.8658 138.778 32.5893L138.07 31.8822ZM138.07 48.7826L137.363 49.4897L158.174 70.3005L158.881 69.5934L159.588 68.8863L138.778 48.0755L138.07 48.7826ZM159.12 69.5933L159.827 70.3004L180.638 49.4897L179.931 48.7826L179.224 48.0755L158.413 68.8862L159.12 69.5933ZM179.931 48.7826L180.638 49.4897C185.696 44.4321 185.696 36.2327 180.638 31.1751L179.931 31.8822L179.224 32.5893C183.5 36.8658 183.5 43.799 179.224 48.0755L179.931 48.7826ZM21.4016 10.4124L22.0237 11.1954C38.5933 -1.96892 62.7339 -1.51933 78.8365 13.229L79.5119 12.4916L80.1873 11.7541C63.3483 -3.66874 38.1068 -4.13674 20.7796 9.62946L21.4016 10.4124ZM79.5119 12.4916L78.8365 13.229L95.2679 28.2786L95.9434 27.5412L96.6188 26.8038L80.1873 11.7541L79.5119 12.4916ZM96.2574 28.432L95.2685 28.2838C94.6917 32.133 94.3399 35.8499 94.014 39.4433L95.0099 39.5336L96.0059 39.6239C96.3317 36.0306 96.6792 32.3657 97.2464 28.5802L96.2574 28.432ZM95.0099 39.5336L94.014 39.4433C93.8636 41.1022 91.7158 41.8859 90.4652 40.5779L89.7424 41.2689L89.0196 41.96C91.3567 44.4044 95.6875 43.1356 96.0059 39.6239L95.0099 39.5336ZM89.7424 41.2689L90.4652 40.5779C85.0918 34.9569 78.8088 29.6798 70.9754 25.1615L70.4758 26.0277L69.9761 26.8939C77.6202 31.303 83.7563 36.4542 89.0195 41.9599L89.7424 41.2689ZM70.4758 26.0277L70.9754 25.1615C58.8092 18.1441 43.2325 13.1371 22.0358 11.1309L21.9416 12.1264L21.8474 13.122C42.8206 15.1071 58.1075 20.0483 69.9761 26.8939L70.4758 26.0277ZM21.4016 10.4124L20.7796 9.62946C19.3279 10.7828 20.1469 12.961 21.8474 13.122L21.9416 12.1264L22.0358 11.1309C22.0254 11.1299 22.0226 11.1282 22.0246 11.129C22.0264 11.1298 22.0291 11.1313 22.0317 11.1335C22.0361 11.1372 22.0366 11.1394 22.0367 11.1397C22.0369 11.1402 22.04 11.1502 22.0348 11.1687C22.0322 11.1782 22.028 11.1869 22.0236 11.1936C22.019 11.2005 22.0173 11.2005 22.0237 11.1954L21.4016 10.4124ZM159.04 69.5931L158.333 70.3002C158.741 70.7085 159.411 70.7171 159.827 70.3004L159.12 69.5933L158.413 68.8862C158.786 68.5135 159.383 68.5217 159.747 68.886L159.04 69.5931ZM158.881 69.5934L158.174 70.3005C158.588 70.7146 159.26 70.7126 159.672 70.2959L158.961 69.5931L158.249 68.8904C158.617 68.5178 159.218 68.516 159.588 68.8863L158.881 69.5934ZM45.0685 93.8294L44.3614 94.5365C44.7697 94.9449 45.4388 94.9535 45.8556 94.5367L45.1485 93.8296L44.4414 93.1225C44.8141 92.7498 45.4113 92.758 45.7756 93.1223L45.0685 93.8294ZM12.4996 20.465L12.5507 19.4663C11.8809 19.432 11.2253 19.7382 10.8274 20.2933L11.6402 20.8759L12.453 21.4585C12.4491 21.4639 12.4464 21.4648 12.4477 21.4642C12.4492 21.4635 12.4499 21.4637 12.4485 21.4636L12.4996 20.465ZM44.989 93.8295L45.7004 94.5322C45.3282 94.909 44.7274 94.9025 44.3614 94.5365L45.0685 93.8294L45.7756 93.1223C45.3657 92.7124 44.6934 92.7057 44.2775 93.1267L44.989 93.8295ZM161.22 115.738L160.968 116.705C160.975 116.707 160.977 116.708 160.976 116.708C160.976 116.708 160.975 116.707 160.975 116.707C160.975 116.707 160.976 116.708 160.977 116.71C160.978 116.712 160.979 116.715 160.98 116.718C160.982 116.726 160.98 116.729 160.981 116.725C160.982 116.724 160.983 116.721 160.984 116.719C160.985 116.717 160.985 116.719 160.98 116.723L161.656 117.46L162.331 118.197C163.517 117.112 162.997 115.167 161.472 114.77L161.22 115.738ZM45.7356 59.4409L45.0286 58.7337L45.0286 58.7337L44.3215 59.4408L43.6144 60.1479C44.3954 60.9289 45.6616 60.929 46.4426 60.1481L45.7356 59.4409ZM95.9434 27.5412L95.2679 28.2786C95.268 28.2787 95.268 28.2786 95.2679 28.2786C95.2679 28.2786 95.2679 28.2785 95.2679 28.2785C95.2678 28.2785 95.2678 28.2785 95.2678 28.2785C95.2678 28.2785 95.268 28.2787 95.2682 28.2792C95.2685 28.2803 95.2688 28.2818 95.2685 28.2838L96.2574 28.432L97.2464 28.5802C97.3448 27.9233 97.1127 27.2562 96.6188 26.8038L95.9434 27.5412ZM108.044 25.0027L109.022 25.2106C109.021 25.2141 109.02 25.215 109.02 25.2146L108.345 24.4771L107.67 23.7396C107.365 24.0185 107.152 24.3867 107.066 24.7948L108.044 25.0027ZM158.961 69.5931L159.672 70.2959C159.3 70.6727 158.699 70.6662 158.333 70.3002L159.04 69.5931L159.747 68.886C159.337 68.4761 158.665 68.4694 158.249 68.8904L158.961 69.5931ZM171.525 108.421L170.85 107.683L170.85 107.683L170.656 108.663L170.461 109.644C171.083 109.767 171.731 109.588 172.2 109.158L171.525 108.421ZM44.9096 93.8297L44.2025 94.5368C44.6166 94.951 45.2888 94.9489 45.7004 94.5322L44.989 93.8295L44.2775 93.1267C44.6455 92.7541 45.2465 92.7523 45.6167 93.1226L44.9096 93.8297ZM55.1772 132.012L55.8527 131.275C55.8522 131.275 55.8528 131.275 55.8538 131.276C55.8546 131.278 55.8553 131.279 55.8556 131.28C55.8563 131.281 55.8556 131.28 55.8557 131.277C55.8557 131.274 55.8564 131.271 55.8571 131.27C55.8574 131.269 55.8577 131.269 55.8579 131.268C55.8581 131.268 55.8586 131.267 55.8601 131.266L55.1903 130.523L54.5204 129.781C53.6536 130.563 53.621 131.943 54.5018 132.75L55.1772 132.012ZM100.909 169.273L100.94 168.274C100.849 168.271 100.758 168.274 100.667 168.283L100.765 169.278L100.864 170.273C100.869 170.273 100.873 170.273 100.878 170.273L100.909 169.273ZM159.707 35.2046L159 34.4974L159 34.4974L158.293 35.2045L157.586 35.9116C158.367 36.6926 159.633 36.6926 160.414 35.9118L159.707 35.2046ZM46.8917 123.19L46.2246 122.445C46.2238 122.446 46.2232 122.446 46.2221 122.447C46.2205 122.447 46.2181 122.448 46.2155 122.448C46.213 122.448 46.2123 122.448 46.2135 122.448C46.2153 122.449 46.2177 122.45 46.2194 122.452L45.544 123.189L44.8685 123.926C45.6345 124.628 46.8024 124.613 47.5589 123.935L46.8917 123.19Z" fill="black" mask="url(#path-1-inside-1_639_2628)"/>
</mask>
<g mask="url(#mask0_639_2628)">
<rect x="-1.12582" y="73.3397" width="163.919" height="53.2192" transform="rotate(22.1205 -1.12582 73.3397)" fill="url(#paint1_linear_639_2628)"/>
<path d="M46.5311 111.952C114.118 154.895 156.47 137.872 156.47 137.872L164.962 111.952C164.962 111.952 145.296 113.739 95.2433 90.5005C45.1904 67.2616 -15.5741 15.4211 -15.5741 15.4211L-15.5742 37.7569C-15.5742 37.7569 -21.0555 69.0088 46.5311 111.952Z" fill="url(#paint2_linear_639_2628)"/>
<path d="M55.9161 83.7969C122.058 128.934 186.411 112.399 186.411 112.399L192.668 88.7128L63.0666 -14.0746L-4.41576 9.61121C-4.41576 9.61121 -10.2253 38.6598 55.9161 83.7969Z" fill="url(#paint3_linear_639_2628)"/>
<path d="M136.174 -21.6719L233.868 39.9492L202.396 89.844C146.128 93.2519 123.223 77.1122 104.703 28.2229L136.174 -21.6719Z" fill="#C693B4"/>
<path d="M136.174 -21.6719L233.868 39.9492L202.396 89.844C146.128 93.2519 123.223 77.1122 104.703 28.2229L136.174 -21.6719Z" fill="#C693B4"/>
<path d="M119.287 -35.9728L242.441 0.778905L225.572 57.3066C150.985 57.2864 123.852 49.3928 102.418 20.5549L119.287 -35.9728Z" fill="#E39BAF"/>
<path d="M119.287 -35.9728L242.441 0.778905L225.572 57.3066C150.985 57.2864 123.852 49.3928 102.418 20.5549L119.287 -35.9728Z" fill="#E39BAF"/>
</g>
<defs>
<linearGradient id="paint0_linear_639_2628" x1="100.5" y1="0.673218" x2="100.5" y2="169.327" gradientUnits="userSpaceOnUse">
<stop stop-color="#DDA0B2"/>
<stop offset="1" stop-color="#775660"/>
</linearGradient>
<linearGradient id="paint1_linear_639_2628" x1="41.4567" y1="104.947" x2="148.653" y2="100.45" gradientUnits="userSpaceOnUse">
<stop stop-color="#890F74"/>
<stop offset="1" stop-color="#4C2383"/>
</linearGradient>
<linearGradient id="paint2_linear_639_2628" x1="-4.41574" y1="71.2838" x2="152.697" y2="120.663" gradientUnits="userSpaceOnUse">
<stop stop-color="#B61B76"/>
<stop offset="1" stop-color="#445DB5"/>
</linearGradient>
<linearGradient id="paint3_linear_639_2628" x1="33.5709" y1="3.35459" x2="162.279" y2="115.08" gradientUnits="userSpaceOnUse">
<stop stop-color="#E13C66"/>
<stop offset="0.747136" stop-color="#B489B7"/>
</linearGradient>
</defs>
</svg>
