<svg width="46" height="46" viewBox="0 0 46 46" fill="none" xmlns="http://www.w3.org/2000/svg">
<path fill-rule="evenodd" clip-rule="evenodd" d="M26.3809 5.75C28.5588 5.75 30.5499 6.98051 31.5239 8.92852L33.2382 12.3572C33.5629 13.0065 34.2265 13.4167 34.9525 13.4167H36.4167C39.5923 13.4167 42.1667 15.991 42.1667 19.1667V34.5C42.1667 37.6756 39.5923 40.25 36.4167 40.25H9.58337C6.40774 40.25 3.83337 37.6756 3.83337 34.5V19.1667C3.83337 15.991 6.40774 13.4167 9.58337 13.4167H11.0476C11.7736 13.4167 12.4372 13.0065 12.7619 12.3572L14.4762 8.92852C15.4502 6.98051 17.4412 5.75 19.6192 5.75H26.3809ZM26.3809 9.58333H19.6192C18.8932 9.58333 18.2295 9.9935 17.9049 10.6428L16.1905 14.0715C15.2165 16.0195 13.2255 17.25 11.0476 17.25H9.58337C8.52483 17.25 7.66671 18.1081 7.66671 19.1667V34.5C7.66671 35.5585 8.52483 36.4167 9.58337 36.4167H36.4167C37.4753 36.4167 38.3334 35.5585 38.3334 34.5V19.1667C38.3334 18.1081 37.4753 17.25 36.4167 17.25H34.9525C32.7746 17.25 30.7836 16.0195 29.8095 14.0715L28.0952 10.6428C27.7706 9.9935 27.1069 9.58333 26.3809 9.58333ZM23 17.25C27.2342 17.25 30.6667 20.6825 30.6667 24.9167C30.6667 29.1509 27.2342 32.5833 23 32.5833C18.7659 32.5833 15.3334 29.1509 15.3334 24.9167C15.3334 20.6825 18.7659 17.25 23 17.25ZM23 21.0833C20.8829 21.0833 19.1667 22.7996 19.1667 24.9167C19.1667 27.0338 20.8829 28.75 23 28.75C25.1171 28.75 26.8334 27.0338 26.8334 24.9167C26.8334 22.7996 25.1171 21.0833 23 21.0833Z" fill="#FFFBFB"/>
</svg>
