<svg width="30" height="30" viewBox="0 0 30 30" fill="none" xmlns="http://www.w3.org/2000/svg">
<path d="M23.4083 0.982483C24.7183 -0.327474 26.8424 -0.327532 28.1524 0.982483C29.4623 2.2925 29.4623 4.4166 28.1524 5.72662L19.5245 14.3546L28.5782 23.4083C29.888 24.7183 29.8881 26.8424 28.5782 28.1524C27.2682 29.4624 25.1441 29.4622 23.834 28.1524L14.7803 19.0987L5.72662 28.1524C4.4166 29.4624 2.29251 29.4623 0.982483 28.1524C-0.327536 26.8424 -0.327488 24.7183 0.982483 23.4083L10.0362 14.3546L1.40826 5.72662C0.0982209 4.41658 0.0982209 2.29253 1.40826 0.982483C2.71831 -0.327471 4.84239 -0.327531 6.1524 0.982483L14.7803 9.61041L23.4083 0.982483Z" fill="black"/>
</svg>
