<svg width="24" height="24" viewBox="0 0 24 24" fill="none" xmlns="http://www.w3.org/2000/svg">
<path d="M12 12.75C8.83 12.75 6.25 10.17 6.25 7C6.25 3.83 8.83 1.25 12 1.25C15.17 1.25 17.75 3.83 17.75 7C17.75 10.17 15.17 12.75 12 12.75ZM12 2.75C9.66 2.75 7.75 4.66 7.75 7C7.75 9.34 9.66 11.25 12 11.25C14.34 11.25 16.25 9.34 16.25 7C16.25 4.66 14.34 2.75 12 2.75Z" fill="black"/>
<path d="M15.8201 22.75C15.4401 22.75 15.0801 22.61 14.8201 22.35C14.5101 22.04 14.3701 21.59 14.4401 21.12L14.6301 19.77C14.6801 19.42 14.8901 19.01 15.1401 18.75L18.68 15.21C20.1 13.79 21.3501 14.6 21.9601 15.21C22.4801 15.73 22.7501 16.29 22.7501 16.85C22.7501 17.42 22.4901 17.95 21.9601 18.48L18.42 22.02C18.17 22.27 17.7501 22.48 17.4001 22.53L16.05 22.72C15.97 22.74 15.9001 22.75 15.8201 22.75ZM20.31 15.92C20.13 15.92 19.97 16.04 19.74 16.27L16.2001 19.81C16.1701 19.84 16.12 19.94 16.12 19.98L15.9401 21.23L17.1901 21.05C17.2301 21.04 17.33 20.99 17.36 20.96L20.9001 17.42C21.0601 17.26 21.2501 17.03 21.2501 16.85C21.2501 16.7 21.1301 16.49 20.9001 16.27C20.6601 16.03 20.48 15.92 20.31 15.92Z" fill="black"/>
<path d="M20.9201 19.22C20.8501 19.22 20.7801 19.21 20.7201 19.19C19.4001 18.82 18.3501 17.77 17.9801 16.45C17.8701 16.05 18.1001 15.64 18.5001 15.53C18.9001 15.42 19.3101 15.65 19.4201 16.05C19.6501 16.87 20.3001 17.52 21.1201 17.75C21.5201 17.86 21.7501 18.28 21.6401 18.67C21.5501 19 21.2501 19.22 20.9201 19.22Z" fill="black"/>
<path d="M3.41016 22.75C3.00016 22.75 2.66016 22.41 2.66016 22C2.66016 17.73 6.85018 14.25 12.0002 14.25C13.0902 14.25 14.1702 14.41 15.1802 14.71C15.5802 14.83 15.8002 15.25 15.6802 15.64C15.5602 16.04 15.1402 16.26 14.7502 16.14C13.8702 15.88 12.9502 15.74 12.0002 15.74C7.68018 15.74 4.16016 18.54 4.16016 21.99C4.16016 22.41 3.82016 22.75 3.41016 22.75Z" fill="black"/>
</svg>
