<svg width="30" height="30" viewBox="0 0 30 30" fill="none" xmlns="http://www.w3.org/2000/svg">
<path d="M10.1628 27.4801C9.82419 27.4801 9.47347 27.3955 9.15905 27.2262C8.46975 26.8634 8.04651 26.1377 8.04651 25.3638V23.6467C4.39442 23.2718 2 20.587 2 16.7415V9.48571C2 5.32571 4.79349 2.53223 8.95349 2.53223H21.0465C25.2065 2.53223 28 5.32571 28 9.48571V16.7415C28 20.9015 25.2065 23.6949 21.0465 23.6949H16.4874L11.3358 27.1295C10.9851 27.3592 10.574 27.4801 10.1628 27.4801ZM8.95349 4.33408C5.83349 4.33408 3.81395 6.35361 3.81395 9.47361V16.7295C3.81395 19.8495 5.83349 21.869 8.95349 21.869C9.4493 21.869 9.86047 22.2802 9.86047 22.776V25.3518C9.86047 25.509 9.95722 25.5816 10.0177 25.6178C10.0781 25.6541 10.1991 25.6904 10.3321 25.6057L15.7135 22.0262C15.8586 21.9295 16.04 21.869 16.2214 21.869H21.0586C24.1786 21.869 26.1982 19.8495 26.1982 16.7295V9.47361C26.1982 6.35361 24.1786 4.33408 21.0586 4.33408H8.95349Z" fill="#292D32"/>
<path d="M14.9998 15.1331C14.504 15.1331 14.0929 14.722 14.0929 14.2262V13.9722C14.0929 12.5695 15.1207 11.8801 15.5077 11.6141C15.9552 11.3118 16.1003 11.1062 16.1003 10.7918C16.1003 10.1871 15.6045 9.69127 14.9998 9.69127C14.3952 9.69127 13.8994 10.1871 13.8994 10.7918C13.8994 11.2876 13.4882 11.6988 12.9924 11.6988C12.4966 11.6988 12.0854 11.2876 12.0854 10.7918C12.0854 9.18341 13.3915 7.87732 14.9998 7.87732C16.6082 7.87732 17.9142 9.18341 17.9142 10.7918C17.9142 12.1704 16.8985 12.8597 16.5236 13.1136C16.0519 13.428 15.9068 13.6336 15.9068 13.9722V14.2262C15.9068 14.7341 15.4956 15.1331 14.9998 15.1331Z" fill="#292D32"/>
<path d="M15 18.1444C14.4921 18.1444 14.093 17.7332 14.093 17.2374C14.093 16.7416 14.5042 16.3304 15 16.3304C15.4958 16.3304 15.907 16.7416 15.907 17.2374C15.907 17.7332 15.5079 18.1444 15 18.1444Z" fill="#292D32"/>
</svg>
