<svg width="20" height="20" viewBox="0 0 20 20" fill="none" xmlns="http://www.w3.org/2000/svg">
<!--<g clip-path="url(#clip0_639_2687)">-->
<!--<path d="M2.55329 6.25829C3.24663 4.87766 4.31027 3.71705 5.62532 2.90618C6.94037 2.09531 8.45501 1.66614 9.99996 1.66663C12.2458 1.66663 14.1325 2.49163 15.575 3.83746L13.1858 6.22746C12.3216 5.40163 11.2233 4.98079 9.99996 4.98079C7.82913 4.98079 5.99163 6.44746 5.33746 8.41663C5.17079 8.91663 5.07579 9.44996 5.07579 9.99996C5.07579 10.55 5.17079 11.0833 5.33746 11.5833C5.99246 13.5533 7.82913 15.0191 9.99996 15.0191C11.1208 15.0191 12.075 14.7233 12.8216 14.2233C13.2545 13.9383 13.6251 13.5685 13.911 13.1362C14.1969 12.7039 14.3921 12.2182 14.485 11.7083H9.99996V8.48496H17.8483C17.9466 9.02996 18 9.59829 18 10.1891C18 12.7275 17.0916 14.8641 15.515 16.3141C14.1366 17.5875 12.25 18.3333 9.99996 18.3333C8.90549 18.3337 7.82166 18.1185 6.81041 17.6998C5.79917 17.2812 4.88034 16.6674 4.10643 15.8935C3.33252 15.1196 2.71871 14.2008 2.30007 13.1895C1.88144 12.1783 1.66619 11.0944 1.66663 9.99996C1.66663 8.65496 1.98829 7.38329 2.55329 6.25829Z" fill="white"/>-->
<!--</g>-->
<path d="M10.1666 18.9583C6.79995 18.9583 3.76662 17.1 2.21662 14.1083C2.19162 14.0833 2.17495 14.05 2.15828 14.0166C1.52495 12.75 1.19995 11.4 1.19995 9.99996C1.19995 8.59996 1.52495 7.24995 2.15828 5.98329C3.69161 2.93329 6.75828 1.04163 10.1583 1.04163C12.4416 1.04163 14.5166 1.84995 16.1583 3.37495C16.2833 3.49162 16.3583 3.64996 16.3583 3.82496C16.3583 3.99996 16.2916 4.1583 16.1666 4.2833L13.8166 6.58329C13.575 6.81662 13.1999 6.82496 12.9499 6.59163C12.4249 6.09996 11.5166 5.51662 10.1583 5.51662C8.44162 5.51662 6.86662 6.54997 6.15828 8.1583C6.09995 8.29163 6.04995 8.41662 5.99995 8.55828C5.84161 9.04162 5.76661 9.5333 5.76661 10.0083C5.76661 10.4833 5.84995 10.9583 5.99995 11.4333C5.99995 11.4416 6.00828 11.45 6.00828 11.4666C6.60828 13.2833 8.27495 14.5 10.1583 14.5C11.15 14.5 12 14.2583 12.6916 13.775C13.325 13.3333 13.725 12.7416 13.9416 12.2083H10.1666C9.82495 12.2083 9.54161 11.925 9.54161 11.5833V8.49163C9.54161 8.14996 9.82495 7.86663 10.1666 7.86663H17.9916C18.2833 7.86663 18.5333 8.06662 18.5999 8.34995C18.7333 8.93328 18.7916 9.4833 18.7916 10.1916C18.7916 12.8416 17.8416 15.1833 16.1083 16.7833C14.5666 18.2 12.5083 18.9583 10.1666 18.9583ZM3.23328 13.3749C3.25828 13.4083 3.28328 13.45 3.29995 13.4916C4.60828 16.0833 7.24161 17.7083 10.1666 17.7083C12.1916 17.7083 13.9499 17.0666 15.2583 15.8583C16.7333 14.5 17.5416 12.4833 17.5416 10.1833C17.5416 9.76663 17.525 9.43329 17.4749 9.10829H10.7916V10.95H14.7583C14.9333 10.95 15.1083 11.025 15.2249 11.1583C15.3416 11.2916 15.3999 11.475 15.3749 11.65C15.2666 12.5833 14.6833 13.9 13.4083 14.7916C12.5083 15.4166 11.4166 15.7416 10.1583 15.7416C7.74995 15.7416 5.61662 14.1916 4.83328 11.875C4.83328 11.8666 4.82495 11.8583 4.82495 11.85C4.61662 11.2416 4.51661 10.625 4.51661 10.0083C4.51661 9.39997 4.61661 8.78328 4.81661 8.16662C4.87495 7.98328 4.94161 7.81662 5.01661 7.64995C5.93328 5.59162 7.94995 4.26662 10.1583 4.26662C11.5833 4.26662 12.6333 4.76663 13.3499 5.29163L14.8083 3.86664C13.4916 2.8333 11.8916 2.29163 10.1583 2.29163C7.23328 2.29163 4.59162 3.91663 3.27495 6.54163C2.73328 7.6333 2.44995 8.79996 2.44995 9.99996C2.45828 11.175 2.71661 12.3083 3.23328 13.3749Z" fill="black"/>
<defs>
<clipPath id="clip0_639_2687">
<rect width="20" height="20" fill="white"/>
</clipPath>
</defs>
</svg>
