<svg width="30" height="30" viewBox="0 0 30 30" fill="none" xmlns="http://www.w3.org/2000/svg">
<path d="M19.6875 7.5H2.8125C2.29688 7.5 1.875 7.07812 1.875 6.5625C1.875 6.04688 2.29688 5.625 2.8125 5.625H19.6875C20.2031 5.625 20.625 6.04688 20.625 6.5625C20.625 7.07812 20.2031 7.5 19.6875 7.5Z" fill="#21272A"/>
<path d="M11.25 7.5C10.7344 7.5 10.3125 7.07812 10.3125 6.5625V3.75C10.3125 3.23438 10.7344 2.8125 11.25 2.8125C11.7656 2.8125 12.1875 3.23438 12.1875 3.75V6.5625C12.1875 7.07812 11.7656 7.5 11.25 7.5Z" fill="#21272A"/>
<path d="M27.1874 27.1875C26.8242 27.1875 26.4785 26.9766 26.3261 26.6191L21.5624 15.5039L16.7988 26.6191C16.5937 27.0937 16.0429 27.3164 15.5683 27.1113C15.0937 26.9063 14.871 26.3555 15.0761 25.8809L20.7011 12.7559C20.8476 12.4102 21.1874 12.1875 21.5624 12.1875C21.9374 12.1875 22.2773 12.4102 22.4238 12.7559L28.0488 25.8809C28.2539 26.3555 28.0312 26.9063 27.5566 27.1113C27.4335 27.1641 27.3105 27.1875 27.1874 27.1875Z" fill="#21272A"/>
<path d="M25.459 23.4375H17.666C17.1504 23.4375 16.7285 23.0156 16.7285 22.5C16.7285 21.9844 17.1504 21.5625 17.666 21.5625H25.459C25.9746 21.5625 26.3965 21.9844 26.3965 22.5C26.3965 23.0156 25.9746 23.4375 25.459 23.4375Z" fill="#21272A"/>
<path d="M4.68749 23.4375C4.36522 23.4375 4.05467 23.2735 3.87889 22.9747C3.61522 22.5293 3.76171 21.9551 4.20702 21.6915C4.24217 21.6739 7.68749 19.6055 10.9277 15.6387C14.1504 11.6954 15.5566 6.3809 15.5683 6.32817C15.6973 5.83012 16.207 5.52543 16.7109 5.65434C17.2148 5.78325 17.5137 6.29301 17.3848 6.79692C17.3262 7.03129 15.8672 12.5508 12.3808 16.8223C8.92381 21.0645 5.31444 23.2149 5.1621 23.3086C5.01561 23.3965 4.85155 23.4375 4.68749 23.4375Z" fill="#21272A"/>
<path d="M15.0001 20.625C14.8009 20.625 14.6017 20.5606 14.4259 20.4316C14.338 20.3613 12.2521 18.7441 10.0372 15.8672C7.83997 13.0195 6.70911 10.834 6.66224 10.7402C6.42786 10.2774 6.6095 9.71485 7.06653 9.48048C7.52943 9.2461 8.09193 9.42774 8.3263 9.88477C8.33802 9.90821 9.43372 12.0176 11.5138 14.7188C13.5704 17.3906 15.5451 18.9258 15.5626 18.9434C15.9728 19.2598 16.049 19.8516 15.7326 20.2559C15.5568 20.502 15.2814 20.625 15.0001 20.625Z" fill="#21272A"/>
</svg>
