<svg width="30" height="30" viewBox="0 0 30 30" fill="none" xmlns="http://www.w3.org/2000/svg">
<path d="M19.0499 27.8375H18.8874C13.3374 27.8375 10.6624 25.65 10.1999 20.75C10.1499 20.2375 10.5249 19.775 11.0499 19.725C11.5499 19.675 12.0249 20.0625 12.0749 20.575C12.4374 24.5 14.2874 25.9625 18.8999 25.9625H19.0624C24.1499 25.9625 25.9499 24.1625 25.9499 19.075V10.925C25.9499 5.83748 24.1499 4.03748 19.0624 4.03748H18.8999C14.2624 4.03748 12.4124 5.52498 12.0749 9.52498C12.0124 10.0375 11.5749 10.425 11.0499 10.375C10.5249 10.3375 10.1499 9.87498 10.1874 9.36248C10.6124 4.38748 13.2999 2.16248 18.8874 2.16248H19.0499C25.1874 2.16248 27.8124 4.78748 27.8124 10.925V19.075C27.8124 25.2125 25.1874 27.8375 19.0499 27.8375Z" fill="#292D32"/>
<path d="M18.7499 15.9375H4.5249C4.0124 15.9375 3.5874 15.5125 3.5874 15C3.5874 14.4875 4.0124 14.0625 4.5249 14.0625H18.7499C19.2624 14.0625 19.6874 14.4875 19.6874 15C19.6874 15.5125 19.2624 15.9375 18.7499 15.9375Z" fill="#292D32"/>
<path d="M7.31255 20.125C7.07505 20.125 6.83755 20.0375 6.65005 19.85L2.46255 15.6625C2.10005 15.3 2.10005 14.7 2.46255 14.3375L6.65005 10.15C7.01255 9.78755 7.61255 9.78755 7.97505 10.15C8.33755 10.5125 8.33755 11.1125 7.97505 11.475L4.45005 15L7.97505 18.525C8.33755 18.8875 8.33755 19.4875 7.97505 19.85C7.80005 20.0375 7.55005 20.125 7.31255 20.125Z" fill="#292D32"/>
</svg>
