<svg width="20" height="20" viewBox="0 0 20 20" fill="none" xmlns="http://www.w3.org/2000/svg">
<path d="M14.1666 17.7083H5.83329C2.79163 17.7083 1.04163 15.9583 1.04163 12.9166V7.08329C1.04163 4.04163 2.79163 2.29163 5.83329 2.29163H14.1666C17.2083 2.29163 18.9583 4.04163 18.9583 7.08329V12.9166C18.9583 15.9583 17.2083 17.7083 14.1666 17.7083ZM5.83329 3.54163C3.44996 3.54163 2.29163 4.69996 2.29163 7.08329V12.9166C2.29163 15.3 3.44996 16.4583 5.83329 16.4583H14.1666C16.55 16.4583 17.7083 15.3 17.7083 12.9166V7.08329C17.7083 4.69996 16.55 3.54163 14.1666 3.54163H5.83329Z" fill="#292D32"/>
<path d="M9.99986 10.725C9.29986 10.725 8.59153 10.5083 8.04986 10.0666L5.44152 7.98331C5.17485 7.76664 5.12486 7.37497 5.34153 7.10831C5.55819 6.84164 5.94986 6.79164 6.21653 7.00831L8.82485 9.09164C9.45819 9.59998 10.5332 9.59998 11.1665 9.09164L13.7749 7.00831C14.0415 6.79164 14.4415 6.83331 14.6499 7.10831C14.8665 7.37497 14.8249 7.77498 14.5499 7.98331L11.9415 10.0666C11.4082 10.5083 10.6999 10.725 9.99986 10.725Z" fill="#292D32"/>
</svg>
