<svg width="24" height="24" viewBox="0 0 24 24" fill="none" xmlns="http://www.w3.org/2000/svg">
<path d="M15.1261 13.846L14.9421 12.81L19.4321 8.31901L16.5811 5.46701L12.0891 9.95701L11.0541 9.77301C10.1354 9.6083 9.18903 9.70142 8.32007 10.042L14.8581 16.579C15.1981 15.7103 15.2909 14.7643 15.1261 13.846V13.846ZM10.8761 15.45L5.17006 21.154C4.98097 21.3431 4.72449 21.4493 4.45706 21.4493C4.18964 21.4493 3.93316 21.3431 3.74406 21.154C3.55497 20.9649 3.44873 20.7084 3.44873 20.441C3.44873 20.1736 3.55497 19.9171 3.74406 19.728L9.44906 14.024L5.17006 9.74501C5.97428 8.93955 6.96154 8.34075 8.04748 7.99979C9.13343 7.65882 10.2858 7.58581 11.4061 7.78701L15.1531 4.04001C15.3404 3.85263 15.5628 3.70399 15.8075 3.60258C16.0523 3.50117 16.3146 3.44897 16.5796 3.44897C16.8445 3.44897 17.1068 3.50117 17.3516 3.60258C17.5964 3.70399 17.8188 3.85263 18.0061 4.04001L20.8581 6.89301C21.2362 7.27125 21.4486 7.78418 21.4486 8.31901C21.4486 8.85383 21.2362 9.36676 20.8581 9.74501L17.1111 13.492C17.3123 14.6123 17.2393 15.7646 16.8983 16.8506C16.5573 17.9365 15.9585 18.9238 15.1531 19.728L10.8761 15.45Z" fill="#21272A"/>
</svg>
