<svg width="24" height="24" viewBox="0 0 24 24" fill="none" xmlns="http://www.w3.org/2000/svg">
<path fill-rule="evenodd" clip-rule="evenodd" d="M14.7093 3.68486C16.3686 2.10505 19.06 2.10505 20.7193 3.68486C22.3793 5.264 22.3793 7.82475 20.7193 9.40457L9.43857 20.1404H21.2857C21.68 20.1404 22 20.4443 22 20.8202C22 21.1955 21.68 21.5 21.2857 21.5H2.71429C2.32 21.5 2 21.1955 2 20.8202V16.0617C2 15.8816 2.07502 15.7082 2.20931 15.5811L14.7093 3.68486ZM7.41857 20.1404L17.0614 10.9633L13.0714 7.16606L3.42857 16.3432V20.1404H7.41857ZM14.0814 6.20485L18.0714 10.0021L19.7093 8.44336C20.8107 7.39445 20.8107 5.69431 19.7093 4.64608C18.6072 3.59717 16.8214 3.59717 15.7193 4.64608L14.0814 6.20485Z" fill="black"/>
</svg>
