<svg width="30" height="30" viewBox="0 0 30 30" fill="none" xmlns="http://www.w3.org/2000/svg">
<path d="M13.75 25.9375C7.025 25.9375 1.5625 20.475 1.5625 13.75C1.5625 7.025 7.025 1.5625 13.75 1.5625C14.2625 1.5625 14.6875 1.9875 14.6875 2.5C14.6875 3.0125 14.2625 3.4375 13.75 3.4375C8.0625 3.4375 3.4375 8.0625 3.4375 13.75C3.4375 19.4375 8.0625 24.0625 13.75 24.0625C19.4375 24.0625 24.0625 19.4375 24.0625 13.75C24.0625 13.2375 24.4875 12.8125 25 12.8125C25.5125 12.8125 25.9375 13.2375 25.9375 13.75C25.9375 20.475 20.475 25.9375 13.75 25.9375Z" fill="#21272A"/>
<path d="M20.625 11.925C19.475 11.925 16.8 10.525 15.975 7.94999C15.4125 6.18748 16.0625 3.87498 18.1 3.21248C18.975 2.92498 19.8875 3.06248 20.6125 3.52498C21.325 3.06248 22.2625 2.93748 23.1375 3.21248C25.175 3.87498 25.8375 6.18748 25.2625 7.94999C24.45 10.575 21.6375 11.925 20.625 11.925ZM17.7625 7.38748C18.3375 9.19998 20.2875 10.025 20.6375 10.0625C21.0375 10.025 22.95 9.09998 23.475 7.39998C23.7625 6.48748 23.475 5.31249 22.5625 5.01249C22.175 4.88749 21.65 4.96249 21.4 5.32499C21.225 5.58749 20.95 5.73748 20.6375 5.74998C20.35 5.76248 20.0375 5.61248 19.8625 5.36248C19.575 4.94998 19.05 4.88748 18.675 4.99998C17.775 5.29998 17.475 6.47498 17.7625 7.38748Z" fill="#21272A"/>
<path d="M25.2001 28.4875C25.1001 28.4875 25.0001 28.475 24.9126 28.4625C24.3251 28.3875 23.2626 27.9875 22.6626 26.2C22.3501 25.2625 22.4626 24.325 22.9751 23.6125C23.4876 22.9 24.3501 22.5 25.3376 22.5C26.6126 22.5 27.6126 22.9875 28.0626 23.85C28.5126 24.7125 28.3876 25.8125 27.6751 26.875C26.7876 28.2125 25.8251 28.4875 25.2001 28.4875ZM24.4501 25.6125C24.6626 26.2625 24.9626 26.5875 25.1626 26.6125C25.3626 26.6375 25.7376 26.4 26.1251 25.8375C26.4876 25.3 26.5126 24.9125 26.4251 24.7375C26.3376 24.5625 25.9876 24.375 25.3376 24.375C24.9501 24.375 24.6626 24.5 24.5001 24.7125C24.3501 24.925 24.3251 25.25 24.4501 25.6125Z" fill="#21272A"/>
</svg>
