<svg width="30" height="30" viewBox="0 0 30 30" fill="none" xmlns="http://www.w3.org/2000/svg">
<path d="M20.35 27.625H15.6C14.9 27.625 13.375 27.4125 12.5625 26.6L8.775 23.675L9.925 22.1875L13.8 25.1875C14.1125 25.4875 14.9 25.7375 15.6 25.7375H20.35C21.475 25.7375 22.6875 24.8375 22.9375 23.825L25.9625 14.6375C26.1625 14.0875 26.125 13.5875 25.8625 13.225C25.5875 12.8375 25.0875 12.6125 24.475 12.6125H19.475C18.825 12.6125 18.225 12.3375 17.8125 11.8625C17.3875 11.375 17.2 10.725 17.3 10.05L17.925 6.03749C18.075 5.33749 17.6 4.54999 16.925 4.32499C16.3125 4.09999 15.525 4.42499 15.25 4.82499L10.125 12.45L8.575 11.4125L13.7 3.78749C14.4875 2.61249 16.2125 2.04999 17.5625 2.56249C19.125 3.07499 20.125 4.79999 19.775 6.39999L19.1625 10.3375C19.15 10.425 19.15 10.55 19.2375 10.65C19.3 10.7125 19.3875 10.75 19.4875 10.75H24.4875C25.7125 10.75 26.775 11.2625 27.4 12.15C28.0125 13.0125 28.1375 14.15 27.7375 15.25L24.75 24.35C24.2875 26.1625 22.3625 27.625 20.35 27.625Z" fill="#21272A"/>
<path d="M6.72501 26.25H5.47501C3.16251 26.25 2.03751 25.1625 2.03751 22.9375V10.6875C2.03751 8.4625 3.16251 7.375 5.47501 7.375H6.72501C9.03751 7.375 10.1625 8.4625 10.1625 10.6875V22.9375C10.1625 25.1625 9.03751 26.25 6.72501 26.25ZM5.47501 9.25C4.11251 9.25 3.91251 9.575 3.91251 10.6875V22.9375C3.91251 24.05 4.11251 24.375 5.47501 24.375H6.72501C8.08751 24.375 8.28751 24.05 8.28751 22.9375V10.6875C8.28751 9.575 8.08751 9.25 6.72501 9.25H5.47501Z" fill="#21272A"/>
</svg>
