<svg width="30" height="30" viewBox="0 0 30 30" fill="none" xmlns="http://www.w3.org/2000/svg">
<path d="M15.0214 24.4689C12.4347 24.4689 9.8481 24.0582 7.39467 23.2367C6.46215 22.9147 5.75166 22.2597 5.44082 21.4049C5.11887 20.5501 5.22989 19.6065 5.74056 18.7628L7.01722 16.6424C7.28366 16.1983 7.52789 15.3102 7.52789 14.7884V11.5801C7.52789 7.45031 10.8916 4.08655 15.0214 4.08655C19.1511 4.08655 22.5149 7.45031 22.5149 11.5801V14.7884C22.5149 15.2991 22.7591 16.1983 23.0255 16.6535L24.2911 18.7628C24.7685 19.5621 24.8573 20.5279 24.5353 21.4049C24.2134 22.2819 23.514 22.948 22.637 23.2367C20.1947 24.0582 17.608 24.4689 15.0214 24.4689ZM15.0214 5.75178C11.8131 5.75178 9.19311 8.36063 9.19311 11.5801V14.7884C9.19311 15.5988 8.86007 16.7978 8.44931 17.4972L7.17264 19.6176C6.92841 20.0283 6.8618 20.4613 7.00612 20.8276C7.13934 21.2051 7.47238 21.4937 7.92754 21.6492C12.568 23.2034 17.4859 23.2034 22.1263 21.6492C22.526 21.5159 22.8368 21.2162 22.9811 20.8165C23.1254 20.4169 23.0921 19.9839 22.8701 19.6176L21.5934 17.4972C21.1716 16.7756 20.8496 15.5877 20.8496 14.7773V11.5801C20.8496 8.36063 18.2408 5.75178 15.0214 5.75178Z" fill="#292D32"/>
<path d="M17.0864 6.05145C17.0087 6.05145 16.931 6.04035 16.8532 6.01814C16.5313 5.92933 16.2205 5.86272 15.9207 5.81832C14.9771 5.6962 14.0668 5.76281 13.212 6.01814C12.9011 6.11806 12.5681 6.01814 12.3571 5.78501C12.1462 5.55188 12.0796 5.21883 12.2017 4.91909C12.6569 3.75343 13.767 2.98743 15.0326 2.98743C16.2982 2.98743 17.4083 3.74233 17.8635 4.91909C17.9745 5.21883 17.919 5.55188 17.7081 5.78501C17.5415 5.96264 17.3084 6.05145 17.0864 6.05145Z" fill="#292D32"/>
<path d="M15.0214 27C13.9224 27 12.8567 26.5559 12.0796 25.7788C11.3025 25.0017 10.8584 23.936 10.8584 22.8369H12.5236C12.5236 23.4919 12.7901 24.1358 13.2563 24.6021C13.7226 25.0683 14.3665 25.3348 15.0214 25.3348C16.398 25.3348 17.5193 24.2135 17.5193 22.8369H19.1845C19.1845 25.1349 17.3195 27 15.0214 27Z" fill="#292D32"/>
</svg>
