<svg width="30" height="30" viewBox="0 0 30 30" fill="none" xmlns="http://www.w3.org/2000/svg">
<path d="M27.5 22.8125H18.75C18.2375 22.8125 17.8125 22.3875 17.8125 21.875C17.8125 21.3625 18.2375 20.9375 18.75 20.9375H27.5C28.0125 20.9375 28.4375 21.3625 28.4375 21.875C28.4375 22.3875 28.0125 22.8125 27.5 22.8125Z" fill="#21272A"/>
<path d="M6.25 22.8125H2.5C1.9875 22.8125 1.5625 22.3875 1.5625 21.875C1.5625 21.3625 1.9875 20.9375 2.5 20.9375H6.25C6.7625 20.9375 7.1875 21.3625 7.1875 21.875C7.1875 22.3875 6.7625 22.8125 6.25 22.8125Z" fill="#21272A"/>
<path d="M27.5 9.0625H23.75C23.2375 9.0625 22.8125 8.6375 22.8125 8.125C22.8125 7.6125 23.2375 7.1875 23.75 7.1875H27.5C28.0125 7.1875 28.4375 7.6125 28.4375 8.125C28.4375 8.6375 28.0125 9.0625 27.5 9.0625Z" fill="#21272A"/>
<path d="M11.25 9.0625H2.5C1.9875 9.0625 1.5625 8.6375 1.5625 8.125C1.5625 7.6125 1.9875 7.1875 2.5 7.1875H11.25C11.7625 7.1875 12.1875 7.6125 12.1875 8.125C12.1875 8.6375 11.7625 9.0625 11.25 9.0625Z" fill="#21272A"/>
<path d="M16.25 26.5625H8.75C6.6 26.5625 5.3125 25.275 5.3125 23.125V20.625C5.3125 18.475 6.6 17.1875 8.75 17.1875H16.25C18.4 17.1875 19.6875 18.475 19.6875 20.625V23.125C19.6875 25.275 18.4 26.5625 16.25 26.5625ZM8.75 19.0625C7.6375 19.0625 7.1875 19.5125 7.1875 20.625V23.125C7.1875 24.2375 7.6375 24.6875 8.75 24.6875H16.25C17.3625 24.6875 17.8125 24.2375 17.8125 23.125V20.625C17.8125 19.5125 17.3625 19.0625 16.25 19.0625H8.75Z" fill="#21272A"/>
<path d="M21.25 12.8125H13.75C11.6 12.8125 10.3125 11.525 10.3125 9.375V6.875C10.3125 4.725 11.6 3.4375 13.75 3.4375H21.25C23.4 3.4375 24.6875 4.725 24.6875 6.875V9.375C24.6875 11.525 23.4 12.8125 21.25 12.8125ZM13.75 5.3125C12.6375 5.3125 12.1875 5.7625 12.1875 6.875V9.375C12.1875 10.4875 12.6375 10.9375 13.75 10.9375H21.25C22.3625 10.9375 22.8125 10.4875 22.8125 9.375V6.875C22.8125 5.7625 22.3625 5.3125 21.25 5.3125H13.75Z" fill="#21272A"/>
</svg>
