<svg width="30" height="30" viewBox="0 0 30 30" fill="none" xmlns="http://www.w3.org/2000/svg">
<path d="M15 19.6875C12.4125 19.6875 10.3125 17.5875 10.3125 15C10.3125 12.4125 12.4125 10.3125 15 10.3125C17.5875 10.3125 19.6875 12.4125 19.6875 15C19.6875 17.5875 17.5875 19.6875 15 19.6875ZM15 12.1875C13.45 12.1875 12.1875 13.45 12.1875 15C12.1875 16.55 13.45 17.8125 15 17.8125C16.55 17.8125 17.8125 16.55 17.8125 15C17.8125 13.45 16.55 12.1875 15 12.1875Z" fill="#292D32"/>
<path d="M19.0125 27.7375C18.75 27.7375 18.4875 27.7 18.225 27.6375C17.45 27.425 16.8 26.9375 16.3875 26.25L16.2375 26C15.5 24.725 14.4875 24.725 13.75 26L13.6125 26.2375C13.2 26.9375 12.55 27.4375 11.775 27.6375C10.9875 27.85 10.175 27.7375 9.4875 27.325L7.3375 26.0875C6.575 25.65 6.025 24.9375 5.7875 24.075C5.5625 23.2125 5.675 22.325 6.1125 21.5625C6.475 20.925 6.575 20.35 6.3625 19.9875C6.15 19.625 5.6125 19.4125 4.875 19.4125C3.05 19.4125 1.5625 17.925 1.5625 16.1V13.9C1.5625 12.075 3.05 10.5875 4.875 10.5875C5.6125 10.5875 6.15 10.375 6.3625 10.0125C6.575 9.65 6.4875 9.075 6.1125 8.4375C5.675 7.675 5.5625 6.775 5.7875 5.925C6.0125 5.0625 6.5625 4.35 7.3375 3.9125L9.5 2.675C10.9125 1.8375 12.775 2.325 13.625 3.7625L13.775 4.0125C14.5125 5.2875 15.525 5.2875 16.2625 4.0125L16.4 3.775C17.25 2.325 19.1125 1.8375 20.5375 2.6875L22.6875 3.925C23.45 4.3625 24 5.075 24.2375 5.9375C24.4625 6.8 24.35 7.6875 23.9125 8.45C23.55 9.0875 23.45 9.6625 23.6625 10.025C23.875 10.3875 24.4125 10.6 25.15 10.6C26.975 10.6 28.4625 12.0875 28.4625 13.9125V16.1125C28.4625 17.9375 26.975 19.425 25.15 19.425C24.4125 19.425 23.875 19.6375 23.6625 20C23.45 20.3625 23.5375 20.9375 23.9125 21.575C24.35 22.3375 24.475 23.2375 24.2375 24.0875C24.0125 24.95 23.4625 25.6625 22.6875 26.1L20.525 27.3375C20.05 27.6 19.5375 27.7375 19.0125 27.7375ZM15 23.1125C16.1125 23.1125 17.15 23.8125 17.8625 25.05L18 25.2875C18.15 25.55 18.4 25.7375 18.7 25.8125C19 25.8875 19.3 25.85 19.55 25.7L21.7125 24.45C22.0375 24.2625 22.2875 23.95 22.3875 23.575C22.4875 23.2 22.4375 22.8125 22.25 22.4875C21.5375 21.2625 21.45 20 22 19.0375C22.55 18.075 23.6875 17.525 25.1125 17.525C25.9125 17.525 26.55 16.8875 26.55 16.0875V13.8875C26.55 13.1 25.9125 12.45 25.1125 12.45C23.6875 12.45 22.55 11.9 22 10.9375C21.45 9.975 21.5375 8.7125 22.25 7.4875C22.4375 7.1625 22.4875 6.775 22.3875 6.4C22.2875 6.025 22.05 5.725 21.725 5.525L19.5625 4.2875C19.025 3.9625 18.3125 4.15 17.9875 4.7L17.85 4.9375C17.1375 6.175 16.1 6.875 14.9875 6.875C13.875 6.875 12.8375 6.175 12.125 4.9375L11.9875 4.6875C11.675 4.1625 10.975 3.975 10.4375 4.2875L8.275 5.5375C7.95 5.725 7.7 6.0375 7.6 6.4125C7.5 6.7875 7.55 7.175 7.7375 7.5C8.45 8.725 8.5375 9.9875 7.9875 10.95C7.4375 11.9125 6.3 12.4625 4.875 12.4625C4.075 12.4625 3.4375 13.1 3.4375 13.9V16.1C3.4375 16.8875 4.075 17.5375 4.875 17.5375C6.3 17.5375 7.4375 18.0875 7.9875 19.05C8.5375 20.0125 8.45 21.275 7.7375 22.5C7.55 22.825 7.5 23.2125 7.6 23.5875C7.7 23.9625 7.9375 24.2625 8.2625 24.4625L10.425 25.7C10.6875 25.8625 11 25.9 11.2875 25.825C11.5875 25.75 11.8375 25.55 12 25.2875L12.1375 25.05C12.85 23.825 13.8875 23.1125 15 23.1125Z" fill="#292D32"/>
</svg>
