<svg width="40" height="33" viewBox="0 0 40 33" fill="none" xmlns="http://www.w3.org/2000/svg">
<path d="M19.2062 14.3313C19.3658 13.9293 19.9175 13.8495 20.1691 14.2014C21.2931 15.7738 22.5253 17.3629 24.1544 18.7502C26.0572 20.3704 28.4828 21.7039 31.8947 22.5286L21.0236 32.4856C20.6266 32.8489 20.1195 33.0163 19.6212 32.9934C19.0906 33.0457 18.5405 32.8838 18.1163 32.4954L10.4532 25.4768C15.5486 20.9102 17.9892 17.3951 19.2062 14.3313ZM2.30871 3.7766C7.18746 4.0212 10.4648 5.02314 12.8614 6.40551C15.0907 7.69132 16.6121 9.33591 17.9747 11.134C18.0666 11.2555 18.1005 11.4116 18.0656 11.5598C18.001 11.8335 17.9278 12.1108 17.8439 12.3928C16.9636 15.3514 14.8618 18.9735 9.02942 24.1721L3.79602 19.3791C-0.66968 15.289 -1.23398 8.52988 2.30871 3.7766ZM23.6779 2.30297C27.25 -0.968762 32.7977 -0.725227 36.0695 2.84692C40.4315 7.60976 40.1075 15.0071 35.3448 19.3694L33.3136 21.2288C29.5424 20.4862 27.0528 19.151 25.1749 17.552C23.3541 16.0015 22.085 14.1942 20.7531 12.2981L20.2111 11.5286C20.1276 11.4109 20.096 11.2642 20.1222 11.1223C20.325 10.022 20.4174 8.9879 20.506 8.00512C20.5125 7.93261 20.519 7.86028 20.5255 7.78832C20.6175 6.77383 20.7148 5.81014 20.9161 4.83129L23.6779 2.30297ZM3.64172 2.28832C6.95839 -0.73115 12.091 -0.775727 15.463 2.31274L18.8566 5.42114C18.7428 6.17384 18.674 6.90273 18.6095 7.61449L18.5939 7.79028C18.5884 7.85056 18.5827 7.91088 18.5773 7.97094C18.5353 8.43233 17.9569 8.61035 17.6427 8.26977C16.5528 7.08799 15.2734 5.97998 13.6476 5.04223C11.2077 3.63495 8.03943 2.64153 3.64172 2.28832Z" fill="url(#paint0_linear_61_992)"/>
<defs>
<linearGradient id="paint0_linear_61_992" x1="6.22464" y1="1.75104e-07" x2="32.9123" y2="33.0055" gradientUnits="userSpaceOnUse">
<stop stop-color="#A6EA21"/>
<stop offset="1" stop-color="#47C04C"/>
</linearGradient>
</defs>
</svg>
