<svg width="23" height="22" viewBox="0 0 23 22" fill="none" xmlns="http://www.w3.org/2000/svg">
<path d="M9.33449 1.36488C9.94395 -0.45494 12.518 -0.454939 13.1274 1.36488L14.446 5.30194C14.7169 6.11097 15.4713 6.65904 16.3244 6.66672L20.4762 6.70411C22.3953 6.72139 23.1907 9.16942 21.6483 10.3114L18.3114 12.782C17.6257 13.2897 17.3376 14.1765 17.5939 14.9903L18.8413 18.9505C19.4179 20.781 17.3355 22.2939 15.7728 21.1799L12.3919 18.7698C11.6972 18.2745 10.7647 18.2745 10.07 18.7698L6.68914 21.1799C5.12641 22.2939 3.04399 20.781 3.62059 18.9505L4.86801 14.9903C5.12435 14.1765 4.83621 13.2897 4.1505 12.782L0.813588 10.3114C-0.728828 9.16942 0.0665859 6.72139 1.98567 6.70411L6.13749 6.66672C6.99065 6.65904 7.745 6.11097 8.01595 5.30194L9.33449 1.36488Z" fill="url(#paint0_linear_61_1000)"/>
<defs>
<linearGradient id="paint0_linear_61_1000" x1="1.933" y1="1.97653" x2="20.5289" y2="17.9278" gradientUnits="userSpaceOnUse">
<stop stop-color="#BE4FEB"/>
<stop offset="1" stop-color="#6C2D85"/>
</linearGradient>
</defs>
</svg>
